#!OML:ASF E:\acrobat2\Project_11_07_03\Capture day 1\Session 1\Acrobat.ASF
:FULLY-SPECIFIED
:DEGREES
257
root 3.4228 16.9493 9.00702 5.40119 7.39443 -2.72168
lowerback 0.569731 0.773778 3.6401
upperback 1.21618 1.03268 -0.276238
thorax 0.99822 0.552144 -2.31969
lowerneck -0.073094 -2.86216 -0.714351
upperneck -10.2293 -3.70153 1.81082
head -3.21234 -1.87111 0.810685
rclavicle 1.11816e-015 2.74323e-014
rhumerus -29.6504 8.79019 -81.6084
rradius 35.3269
rwrist -5.28482
rhand -15.6886 330.958
rfingers 7.12502
rthumb 10.5006 661.24
lclavicle 1.11816e-015 2.74323e-014
lhumerus -384.339 -29.1485 -277.906
lradius 42.6678
lwrist 10.3711
lhand -2.31676 -23.5888
lfingers 7.12502
lthumb 23.3695 5.01249
rfemur -7.10242 -7.03393 22.5741
rtibia 37.3951
rfoot -33.4033 -1.25901
rtoes -1.08849
lfemur -9.86155 -5.47354 -18.4333
ltibia 39.894
lfoot -27.6239 -17.3074
ltoes 30.6141
258
root 3.36864 16.7651 8.7916 5.39859 7.32493 -2.85275
lowerback 1.45262 0.705769 3.83905
upperback 1.23091 0.979433 -0.21808
thorax 0.51735 0.51815 -2.38451
lowerneck -0.0771685 -2.8234 -0.403214
upperneck -11.6512 -3.64785 1.58951
head -3.7188 -1.84816 0.707899
rclavicle 2.23633e-016 1.17283e-014
rhumerus -29.7833 7.16891 -81.3048
rradius 34.613
rwrist -3.91892
rhand -14.6885 326.789
rfingers 7.12502
rthumb 11.4652 657.122
lclavicle 2.23633e-016 1.17283e-014
lhumerus -384.131 -26.2901 -278.101
lradius 40.147
lwrist 8.61432
lhand -5.42487 -22.6393
lfingers 7.12502
lthumb 20.3851 6.31072
rfemur -9.03391 -7.23301 23.2678
rtibia 39.72
rfoot -36.7889 -0.974758
rtoes 6.79516
lfemur -12.1788 -5.47956 -18.2978
ltibia 42.9614
lfoot -29.845 -16.4233
ltoes 27.2949
259
root 3.31878 16.6684 8.60364 5.21848 7.06661 -2.73503
lowerback 2.11732 0.703987 3.848
upperback 1.44411 1.00183 -0.285531
thorax 0.36695 0.530095 -2.46709
lowerneck 0.3732 -2.71566 -0.535411
upperneck -13.2706 -3.45261 1.97867
head -4.381 -1.76295 0.891554
rclavicle 1.18525e-014 9.14409e-015
rhumerus -29.9286 4.9766 -81.0199
rradius 33.2389
rwrist -1.88109
rhand -15.1946 324.842
rfingers 7.12502
rthumb 10.9771 655.149
lclavicle 1.18525e-014 9.14409e-015
lhumerus -383.908 -22.9761 -278.37
lradius 37.025
lwrist 6.44517
lhand -8.24165 -21.665
lfingers 7.12502
lthumb 17.6763 7.55158
rfemur -10.7172 -7.48282 23.6593
rtibia 41.9338
rfoot -36.8634 -6.69893
rtoes -15.9697
lfemur -14.1249 -5.39525 -18.3443
ltibia 45.7034
lfoot -30.5247 -15.8853
ltoes 24.4158
260
root 3.27585 16.642 8.45973 4.74897 6.69052 -2.31735
lowerback 2.60696 0.700249 3.56925
upperback 1.80431 1.00569 -0.411163
thorax 0.460162 0.537669 -2.44403
lowerneck 0.979377 -2.58678 -0.983822
upperneck -14.65 -3.22151 2.52712
head -5.00088 -1.6542 1.18808
rclavicle -1.00138e-014 1.23246e-014
rhumerus -30.2833 2.55034 -80.712
rradius 31.4159
rwrist 0.216032
rhand -16.6172 324.035
rfingers 7.12502
rthumb 9.60467 654.274
lclavicle -1.00138e-014 1.23246e-014
lhumerus -383.913 -19.1019 -278.731
lradius 33.5717
lwrist 4.27086
lhand -9.44537 -21.1358
lfingers 7.12502
lthumb 16.5177 8.18111
rfemur -11.4688 -6.91993 23.3345
rtibia 43.3575
rfoot -37.3514 -5.73301
rtoes -12.3982
lfemur -15.0473 -4.88286 -18.7057
ltibia 47.4299
lfoot -30.6291 -15.8503
ltoes 23.5469
261
root 3.23582 16.6709 8.35803 4.32024 6.26319 -1.87724
lowerback 2.76843 0.716798 3.27674
upperback 2.04827 1.02451 -0.565776
thorax 0.618966 0.551561 -2.43938
lowerneck 1.40386 -2.46389 -1.57976
upperneck -15.7054 -2.9754 3.27089
head -4.86079 -1.55695 1.40825
rclavicle 1.41634e-015 0
rhumerus -31.0185 -0.043653 -80.3549
rradius 29.5502
rwrist 1.63236
rhand -17.289 323.247
rfingers 7.12502
rthumb 8.95647 653.457
lclavicle 1.41634e-015 0
lhumerus -384.202 -15.0853 -279.263
lradius 30.2367
lwrist 2.45112
lhand -7.98527 -20.048
lfingers 7.12502
lthumb 17.923 9.14617
rfemur -11.5282 -6.6819 22.8282
rtibia 43.5919
rfoot -37.1331 -5.1034
rtoes -10.8759
lfemur -14.2476 -3.63528 -18.8887
ltibia 46.0907
lfoot -29.5131 -15.9701
ltoes 25.1272
262
root 3.19621 16.7586 8.29085 4.15742 6.01285 -1.39568
lowerback 2.56837 0.738133 2.98841
upperback 2.02175 1.04198 -0.826292
thorax 0.704134 0.560042 -2.54278
lowerneck 1.69593 -2.36133 -2.16334
upperneck -15.5888 -2.75829 4.14688
head -4.85465 -1.47138 1.76879
rclavicle -2.5345e-015 -2.78299e-015
rhumerus -32.0222 -2.51024 -80.1273
rradius 27.532
rwrist 1.90685
rhand -17.1645 322.181
rfingers 7.12502
rthumb 9.07663 652.397
lclavicle -2.5345e-015 -2.78299e-015
lhumerus -384.675 -12.0097 -279.828
lradius 26.9997
lwrist 1.63548
lhand -4.56955 -17.4229
lfingers 7.12502
lthumb 21.2069 11.4371
rfemur -10.9416 -6.95191 22.1562
rtibia 42.3511
rfoot -36.3489 -4.3778
rtoes -8.59457
lfemur -13.2971 -2.49828 -19.0522
ltibia 44.0824
lfoot -28.4011 -15.7111
ltoes 25.2763
263
root 3.16205 16.9037 8.25361 4.14465 5.92454 -0.82007
lowerback 2.21842 0.714393 2.58716
upperback 1.7765 0.996823 -1.09782
thorax 0.642551 0.53086 -2.59265
lowerneck 1.84691 -2.27648 -2.62175
upperneck -14.8865 -2.59003 4.91669
head -4.64959 -1.40789 2.06686
rclavicle 1.2424e-014 2.82274e-014
rhumerus -33.1681 -4.5078 -79.9588
rradius 25.4913
rwrist 1.69964
rhand -15.8677 320.141
rfingers 7.12502
rthumb 10.3278 650.415
lclavicle 1.2424e-014 2.82274e-014
lhumerus -385.324 -9.80489 -280.3
lradius 23.7155
lwrist 0.614958
lhand -0.248024 -13.9698
lfingers 7.12502
lthumb 25.3528 14.3649
rfemur -9.78739 -7.46333 21.2951
rtibia 39.9027
rfoot -34.987 -4.10657
rtoes -7.70601
lfemur -12.1364 -1.69763 -19.3397
ltibia 41.4868
lfoot -26.9032 -15.4168
ltoes 25.3202
264
root 3.13671 17.0915 8.23554 4.265 5.87108 -0.366317
lowerback 1.70438 0.636673 2.31777
upperback 1.44353 0.880086 -1.27436
thorax 0.579618 0.465957 -2.61677
lowerneck 1.53281 -2.24036 -2.96509
upperneck -13.6424 -2.54578 5.30903
head -4.20721 -1.38161 2.2187
rclavicle 4.47266e-015 2.66371e-014
rhumerus -34.3979 -6.29895 -79.5623
rradius 23.7508
rwrist 2.55996
rhand -12.694 317.769
rfingers 7.12502
rthumb 13.3882 648.219
lclavicle 4.47266e-015 2.66371e-014
lhumerus -386.311 -7.79139 -280.799
lradius 21.0232
lwrist -1.80832
lhand 4.94791 -10.7555
lfingers 7.12502
lthumb 30.3203 16.7733
rfemur -8.4485 -7.78776 20.6154
rtibia 36.8353
rfoot -33.1958 -4.36897
rtoes -8.88955
lfemur -10.9324 -1.13385 -19.5399
ltibia 38.5782
lfoot -25.037 -15.2467
ltoes 26.2257
265
root 3.11541 17.3039 8.22972 4.4954 5.82168 -0.0383859
lowerback 1.0167 0.573464 2.20186
upperback 1.06499 0.782971 -1.43208
thorax 0.57125 0.412562 -2.70732
lowerneck 1.16126 -2.24583 -3.06496
upperneck -12.0795 -2.61889 5.19191
head -4.0601 -1.38056 2.39141
rclavicle -4.12478e-015 6.95746e-015
rhumerus -36.0309 -7.65543 -79.1922
rradius 22.6377
rwrist 3.68052
rhand -10.1799 317.975
rfingers 7.12502
rthumb 15.8104 648.6
lclavicle -4.12478e-015 6.95746e-015
lhumerus -387.859 -6.1647 -281.366
lradius 19.4462
lwrist -4.98366
lhand 10.7275 -8.40335
lfingers 7.12502
lthumb 35.816 17.9581
rfemur -6.99967 -7.70802 20.1851
rtibia 33.3936
rfoot -31.3682 -4.47571
rtoes -9.40031
lfemur -9.67182 -0.698464 -19.6311
ltibia 35.3851
lfoot -23.3817 -14.5179
ltoes 25.1162
266
root 3.09208 17.5212 8.23427 4.83174 5.55961 0.136632
lowerback 0.178676 0.619787 2.19046
upperback 0.601192 0.830893 -1.57501
thorax 0.57062 0.431421 -2.84126
lowerneck 0.995265 -2.2137 -3.07649
upperneck -11.0581 -2.60232 5.21472
head -3.66575 -1.36892 2.36862
rclavicle -1.24489e-014 -2.50469e-014
rhumerus -38.2186 -7.9411 -79.2478
rradius 22.4789
rwrist 3.79473
rhand -8.95158 319.259
rfingers 7.12502
rthumb 16.9931 649.982
lclavicle -1.24489e-014 -2.50469e-014
lhumerus -389.975 -5.48185 -281.794
lradius 18.8124
lwrist -7.71895
lhand 16.4921 -6.72269
lfingers 7.12502
lthumb 41.2543 18.1123
rfemur -5.48987 -6.9789 20.0608
rtibia 29.6135
rfoot -29.6429 -4.46749
rtoes -8.4726
lfemur -8.24942 -0.215661 -19.5409
ltibia 31.806
lfoot -21.9817 -13.2963
ltoes 22.3267
267
root 3.06179 17.7257 8.24422 5.31543 5.03461 0.218099
lowerback -0.793195 0.748293 2.12128
upperback 0.106012 0.986913 -1.64306
thorax 0.618199 0.504118 -2.862
lowerneck 0.671911 -2.2098 -3.13079
upperneck -10.0574 -2.62708 5.18263
head -3.25396 -1.37173 2.33428
rclavicle 8.05078e-015 -1.27222e-014
rhumerus -40.5604 -7.52294 -79.5379
rradius 23.0527
rwrist 3.70399
rhand -6.79481 318.775
rfingers 7.12502
rthumb 19.0682 649.69
lclavicle 8.05078e-015 -1.27222e-014
lhumerus -392.508 -5.94659 -281.697
lradius 19.1085
lwrist -8.58031
lhand 21.599 -5.29366
lfingers 7.12502
lthumb 46.0216 17.7919
rfemur -4.14314 -5.68142 20.192
rtibia 25.772
rfoot -27.9106 -4.9028
rtoes -7.68603
lfemur -6.81602 0.31763 -19.2977
ltibia 28.0361
lfoot -20.3961 -12.1736
ltoes 20.8135
268
root 3.03086 17.9055 8.24881 5.8927 4.54544 0.432748
lowerback -1.71345 0.856178 1.91422
upperback -0.375131 1.12038 -1.74991
thorax 0.64771 0.565401 -2.8435
lowerneck 0.0820899 -2.27355 -3.06188
upperneck -9.08979 -2.7405 5.02699
head -2.80932 -1.41596 2.23439
rclavicle 2.50966e-015 1.23246e-014
rhumerus -42.8257 -6.82569 -79.9816
rradius 23.8205
rwrist 3.39247
rhand -4.33997 319.538
rfingers 7.12502
rthumb 21.4275 650.703
lclavicle 2.50966e-015 1.23246e-014
lhumerus -395.268 -7.20364 -281.153
lradius 20.2148
lwrist -7.31642
lhand 25.4502 -4.38037
lfingers 7.12502
lthumb 49.5742 17.0631
rfemur -2.94106 -4.21899 20.2192
rtibia 22.0232
rfoot -26.2426 -5.5137
rtoes -6.17241
lfemur -5.535 0.583568 -19.2835
ltibia 24.3504
lfoot -18.5844 -11.1903
ltoes 20.9079
269
root 3.00558 18.0535 8.24041 6.45214 4.20647 0.543976
lowerback -2.52393 0.938361 1.94117
upperback -0.77037 1.21902 -1.87818
thorax 0.706023 0.611215 -2.97898
lowerneck -0.604877 -2.31868 -2.74684
upperneck -8.30015 -2.82593 4.71031
head -2.42039 -1.44914 2.04088
rclavicle 1.23246e-014 -3.18055e-015
rhumerus -44.9307 -6.04882 -80.5726
rradius 24.8305
rwrist 2.80172
rhand -1.97263 321.124
rfingers 7.12502
rthumb 23.6996 652.565
lclavicle 1.23246e-014 -3.18055e-015
lhumerus -397.833 -8.5375 -280.582
lradius 21.514
lwrist -5.28496
lhand 28.0818 -4.27818
lfingers 7.12502
lthumb 51.9744 15.8426
rfemur -1.79475 -2.83942 20.3541
rtibia 18.382
rfoot -24.6008 -6.17791
rtoes -4.59837
lfemur -4.40276 0.486331 -19.2784
ltibia 20.904
lfoot -16.9159 -10.2146
ltoes 21.3928
